<?xml version="1.0" encoding="UTF-8" standalone="no"?>
<!-- Created with Inkscape (http://www.inkscape.org/) -->

<svg
   xmlns:dc="http://purl.org/dc/elements/1.1/"
   xmlns:cc="http://creativecommons.org/ns#"
   xmlns:rdf="http://www.w3.org/1999/02/22-rdf-syntax-ns#"
   xmlns:svg="http://www.w3.org/2000/svg"
   xmlns="http://www.w3.org/2000/svg"
   xmlns:sodipodi="http://sodipodi.sourceforge.net/DTD/sodipodi-0.dtd"
   xmlns:inkscape="http://www.inkscape.org/namespaces/inkscape"
   width="1024"
   height="786.94"
   id="svg3058"
   version="1.1"
   inkscape:version="0.48.4 r9939"
   sodipodi:docname="silhouette.svg">
  <defs
     id="defs3060" />
  <sodipodi:namedview
     id="base"
     pagecolor="#ffffff"
     bordercolor="#666666"
     borderopacity="1.0"
     inkscape:pageopacity="0.0"
     inkscape:pageshadow="2"
     inkscape:zoom="0.7"
     inkscape:cx="387.13524"
     inkscape:cy="362.73128"
     inkscape:document-units="px"
     inkscape:current-layer="layer1"
     showgrid="false"
     fit-margin-top="0"
     fit-margin-left="0"
     fit-margin-right="0"
     fit-margin-bottom="0"
     inkscape:window-width="1858"
     inkscape:window-height="1057"
     inkscape:window-x="54"
     inkscape:window-y="-8"
     inkscape:window-maximized="1" />
  <metadata
     id="metadata3063">
    <rdf:RDF>
      <cc:Work
         rdf:about="">
        <dc:format>image/svg+xml</dc:format>
        <dc:type
           rdf:resource="http://purl.org/dc/dcmitype/StillImage" />
        <dc:title />
      </cc:Work>
    </rdf:RDF>
  </metadata>
  <g
     inkscape:label="Layer 1"
     inkscape:groupmode="layer"
     id="layer1"
     transform="translate(-286.7945,424.84576)">
    <path
       inkscape:connector-curvature="0"
       style="color:#000000;fill:#4c3639;fill-opacity:1;stroke:none;stroke-width:0.99999994px;marker:none;visibility:visible;display:inline;overflow:visible;enable-background:accumulate"
       d="m 840.27684,-424.77095 c -24.57205,-1.32887 -48.83028,15.01502 -67.95704,51.4385 -22.23214,1.61659 -44.08087,4.49782 -65.44851,8.78219 -0.67448,0.13382 -1.41787,0.28103 -2.091,0.41485 -66.87708,16.27832 -135.44637,46.19864 -197.80824,86.14904 -0.19404,0.12044 -0.2275,0.29442 -0.41485,0.41486 -0.0669,0.0669 -0.1539,-0.0669 -0.20743,0 -127.07904,90.68567 -212.06917,236.765001 -219.55527,402.9353 63.14942,10.65103 121.61234,34.44289 173.97088,66.91188 46.73594,28.98221 76.40467,53.94837 109.35944,86.776 21.94107,21.8561 42.38867,46.58472 58.12969,72.55724 15.74102,25.97251 17.3643,-0.81164 23.83736,-31.36428 6.47305,-30.5533 9.42521,-53.67336 19.65536,-88.03127 10.9769,-36.86443 24.32916,-66.59338 34.91931,-74.23003 20.46165,-14.75407 84.94329,-27.95645 132.56982,-24.88319 42.98955,2.77417 87.40297,14.64032 131.10513,26.34655 31.58841,-22.19735 69.09521,-37.04911 109.56821,-42.02936 -31.9912,9.73903 -64.8938,25.53491 -94.93124,46.00192 23.46804,6.24087 46.76804,12.24889 69.00284,16.31044 66.7085,12.18465 125.9282,7.58178 165.6069,-28.85642 21.0284,2.84309 53.2371,-10.7146 67.7483,-22.58276 -23.2117,7.11073 -69.6104,-14.80358 -63.9845,-58.96542 13.3155,25.606506 61.5081,43.76304 81.3394,37.63793 8.4657,-18.709898 8.5715,-42.965454 -2.5091,-61.893486 -14.8438,-25.359602 -100.2983,-55.366234 -139.4692,-120.650815 -43.1086,-71.847969 -42.3505,-84.081469 -97.4404,-132.150959 -25.7677,-22.48306 -47.2184,-51.3997 -61.4753,-65.65728 -25.1769,-25.17693 -48.88646,-45.53554 -75.9028,-61.68472 -22.61019,-56.0474 -55.41642,-87.96236 -87.61307,-89.70341 z m -185.05283,126.71437 c 38.78949,-1.09669 80.69372,20.52588 106.64014,92.84023 -49.03235,-47.114 -105.55482,-44.41544 -143.44167,-22.7922 -53.99722,30.82028 -78.08415,136.071329 7.73635,204.5001 -137.28577,-74.621465 -92.14301,-220.82726 -26.55598,-258.23836 15.8193,-9.02307 35.30137,-15.735 55.62116,-16.30977 z m 327.86821,210.981846 c 22.00668,-0.941451 48.48498,15.286687 56.66568,50.392673 -34.7674,5.681488 -83.9035,8.726647 -84.26683,-35.128736 5.81063,-9.631965 16.07424,-14.770797 27.60115,-15.263937 z M 973.05544,33.157212 C 1023.1243,32.74905 1072.1325,48.772437 1125.6975,76.859367 1033.3404,41.968168 952.68813,30.274648 851.77766,65.986187 894.62669,43.693156 934.11272,33.475043 973.05544,33.157212 z"
       id="path5892" />
  </g>
</svg>
