<?xml version="1.0" encoding="UTF-8" standalone="no"?>
<!-- Created with Inkscape (http://www.inkscape.org/) -->

<svg
   xmlns:dc="http://purl.org/dc/elements/1.1/"
   xmlns:cc="http://creativecommons.org/ns#"
   xmlns:rdf="http://www.w3.org/1999/02/22-rdf-syntax-ns#"
   xmlns:svg="http://www.w3.org/2000/svg"
   xmlns="http://www.w3.org/2000/svg"
   xmlns:sodipodi="http://sodipodi.sourceforge.net/DTD/sodipodi-0.dtd"
   xmlns:inkscape="http://www.inkscape.org/namespaces/inkscape"
   width="1024"
   height="358.93051"
   id="svg2"
   version="1.1"
   inkscape:version="0.48.4 r9939"
   sodipodi:docname="full.svg">
  <defs
     id="defs4" />
  <sodipodi:namedview
     id="base"
     pagecolor="#ffffff"
     bordercolor="#666666"
     borderopacity="1.0"
     inkscape:pageopacity="0.0"
     inkscape:pageshadow="2"
     inkscape:zoom="0.7"
     inkscape:cx="603.63167"
     inkscape:cy="51.886259"
     inkscape:document-units="px"
     inkscape:current-layer="layer1"
     showgrid="false"
     fit-margin-top="0"
     fit-margin-left="0"
     fit-margin-right="0"
     fit-margin-bottom="0"
     inkscape:window-width="1858"
     inkscape:window-height="1057"
     inkscape:window-x="54"
     inkscape:window-y="-8"
     inkscape:window-maximized="1" />
  <metadata
     id="metadata7">
    <rdf:RDF>
      <cc:Work
         rdf:about="">
        <dc:format>image/svg+xml</dc:format>
        <dc:type
           rdf:resource="http://purl.org/dc/dcmitype/StillImage" />
        <dc:title />
      </cc:Work>
    </rdf:RDF>
  </metadata>
  <g
     inkscape:label="Layer 1"
     inkscape:groupmode="layer"
     id="layer1"
     transform="translate(-126.35476,-75.246488)">
    <g
       id="g5968"
       transform="matrix(2.0650902,0,0,2.0650902,-2630.2949,3327.947)">
      <g
         transform="translate(-54.6934,-2918.634)"
         style="fill:#4c3639;fill-opacity:1"
         id="g5896">
        <path
           transform="matrix(1.6882041,0,0,1.6872776,1076.8844,2007.7223)"
           d="m 265.77948,-313.88241 -40.2795,23.25537 -40.27949,-23.25537 0,-46.51075 40.27949,-23.25538 40.2795,23.25538 z"
           inkscape:randomized="0"
           inkscape:rounded="0"
           inkscape:flatsided="true"
           sodipodi:arg2="1.0471976"
           sodipodi:arg1="0.52359878"
           sodipodi:r2="40.279491"
           sodipodi:r1="46.51075"
           sodipodi:cy="-337.13779"
           sodipodi:cx="225.49998"
           sodipodi:sides="6"
           id="path5898"
           style="fill:#4c3639;fill-opacity:1;fill-rule:nonzero;stroke:none"
           sodipodi:type="star" />
        <text
           xml:space="preserve"
           style="font-size:144px;font-style:normal;font-variant:normal;font-weight:900;font-stretch:normal;line-height:125%;letter-spacing:0px;word-spacing:0px;fill:#4c3639;fill-opacity:1;stroke:none;font-family:Raleway;-inkscape-font-specification:Raleway Heavy"
           x="1524.1313"
           y="1476.7501"
           id="text5900"
           sodipodi:linespacing="125%"><tspan
             sodipodi:role="line"
             id="tspan5902"
             x="1524.1313"
             y="1476.7501">ungo</tspan></text>
        <text
           sodipodi:linespacing="125%"
           id="text5904"
           y="1392.8756"
           x="1530.3223"
           style="font-size:13px;font-style:normal;font-variant:normal;font-weight:normal;font-stretch:normal;line-height:125%;letter-spacing:0px;word-spacing:0px;fill:#4c3639;fill-opacity:1;stroke:none;font-family:Open Sans;-inkscape-font-specification:Open Sans"
           xml:space="preserve"><tspan
             y="1392.8756"
             x="1530.3223"
             id="tspan5906"
             sodipodi:role="line">write once</tspan></text>
        <text
           xml:space="preserve"
           style="font-size:13px;font-style:normal;font-variant:normal;font-weight:normal;font-stretch:normal;line-height:125%;letter-spacing:0px;word-spacing:0px;fill:#4c3639;fill-opacity:1;stroke:none;font-family:Open Sans;-inkscape-font-specification:Open Sans"
           x="1589.9296"
           y="1494.7621"
           id="text5908"
           sodipodi:linespacing="125%"><tspan
             sodipodi:role="line"
             id="tspan5910"
             x="1589.9296"
             y="1494.7621">compile anywhere</tspan></text>
      </g>
      <text
         sodipodi:linespacing="125%"
         id="text5912"
         y="-1441.1766"
         x="1334.913"
         style="font-size:144px;font-style:normal;font-variant:normal;font-weight:900;font-stretch:normal;line-height:125%;letter-spacing:0px;word-spacing:0px;fill:#ebebe0;fill-opacity:1;stroke:none;font-family:Raleway;-inkscape-font-specification:Raleway Heavy"
         xml:space="preserve"><tspan
           y="-1441.1766"
           x="1334.913"
           id="tspan5914"
           sodipodi:role="line">m</tspan></text>
      <g
         id="g5916"
         transform="matrix(0.46455775,0,0,0.46455775,1031.4603,-2954.8391)">
        <path
           style="color:#000000;fill:#4c3639;fill-opacity:1;stroke:none;stroke-width:0.99999994px;marker:none;visibility:visible;display:inline;overflow:visible;enable-background:accumulate"
           d="m 852.94033,2970.0625 c -8.27978,-0.085 -12.41718,10.7974 -21.1875,9.5937 -38.36134,7.691 -68.43224,44.3987 -68.34375,83.5313 -0.73711,3.2905 2.36945,5.6938 5.4375,4.6875 21.71611,2.9408 39.08807,18.5411 52.03125,35.0312 7.64885,3.2084 14.40836,-6.0529 13.84375,-13.0624 1.69009,-6.5626 0.77437,-16.7608 8.625,-19.375 22.46718,-4.9263 44.29427,13.8098 66.28761,4.0133 9.18712,-2.8857 20.81044,-6.8613 22.89989,-17.5446 2.40942,-9.6409 -5.11253,-18.2014 -13.3125,-21.8437 -7.49152,-4.2344 -11.77127,-11.7891 -15.62197,-19.1414 -10.12085,-14.4361 -25.4446,-24.2919 -35.37803,-38.7962 -3.80779,-4.2936 -9.35895,-7.4879 -15.28125,-7.0937 z"
           id="path5918"
           inkscape:connector-curvature="0" />
        <path
           style="color:#000000;fill:#ebebe0;fill-opacity:1;stroke:none;stroke-width:0.99999994px;marker:none;visibility:visible;display:inline;overflow:visible;enable-background:accumulate"
           d="m 854.53408,2978.125 c -3.67338,-0.1987 -7.29729,2.2405 -10.15625,7.6875 -3.32217,0.2416 -6.5882,0.6723 -9.78125,1.3125 -0.10074,0.02 -0.21189,0.041 -0.3125,0.062 -9.99481,2.4328 -20.24248,6.8731 -29.5625,12.8437 -0.0285,0.018 -0.034,0.044 -0.0625,0.063 -0.008,0.01 -0.0235,0.026 -0.0312,0.031 -18.99194,13.553 -31.69368,35.3534 -32.8125,60.1875 9.43767,1.5919 18.17507,5.1475 26,10 6.98475,4.3314 11.41862,8.0627 16.34375,12.9687 3.27911,3.2664 6.335,6.9621 8.6875,10.8438 2.3525,3.8816 2.59508,-0.1213 3.5625,-4.6875 0.96742,-4.5661 1.40859,-8.0215 2.9375,-13.1563 1.64046,-5.5093 3.63595,-9.9524 5.21875,-11.0937 3.05793,-2.205 12.69475,-4.1468 19.8125,-3.6875 6.42489,0.4146 13.09374,2.1568 19.625,3.9062 4.72087,-3.3173 10.295,-5.537 16.34375,-6.2812 -4.78112,1.4554 -9.69849,3.8162 -14.1875,6.875 3.50721,0.9326 6.98953,1.8305 10.3125,2.4375 9.9696,1.8211 18.82,1.1645 24.75,-4.2813 3.14267,0.4248 7.95636,-1.6325 10.125,-3.4062 -3.46892,1.0627 -10.40334,-2.1811 -9.5625,-8.7812 1.9899,3.8269 9.19232,6.5091 12.15625,5.5937 1.26504,-2.7961 1.28094,-6.3899 -0.375,-9.2187 -2.21853,-3.79 -14.98968,-8.3057 -20.84375,-18.0626 -6.44264,-10.7377 -6.3293,-12.5659 -14.5625,-19.75 -3.85102,-3.36 -7.05675,-7.6504 -9.1875,-9.7812 -3.75844,-3.7584 -7.31178,-6.7754 -11.34375,-9.1875 -3.37977,-8.4092 -8.27177,-13.1767 -13.09375,-13.4375 z m -27.65625,18.9062 c 5.79726,-0.1639 12.05966,3.0676 15.9375,13.875 -7.32804,-7.0412 -15.77538,-6.6066 -21.4375,-3.375 -8.06994,4.6061 -11.66968,20.3046 1.15625,30.5313 -20.51747,-11.1522 -13.77082,-33.0027 -3.96875,-38.5937 2.3641,-1.3486 5.27582,-2.3516 8.3125,-2.4376 z m 49,31.5313 c 3.28882,-0.1407 7.24615,2.2847 8.46875,7.5313 -5.196,0.849 -12.53946,1.3354 -12.59375,-5.2188 0.86843,-1.4395 2.40226,-2.2388 4.125,-2.3125 z m -1.5,18 c 7.48288,-0.061 14.80721,2.3024 22.8125,6.5 -13.80294,-5.2144 -25.85637,-6.9621 -40.9375,-1.625 6.40383,-3.3317 12.30501,-4.8275 18.125,-4.875 z"
           id="path5920"
           inkscape:connector-curvature="0" />
      </g>
    </g>
  </g>
</svg>
