<?xml version="1.0" encoding="UTF-8" standalone="no"?>
<!-- Created with Inkscape (http://www.inkscape.org/) -->

<svg
   xmlns:dc="http://purl.org/dc/elements/1.1/"
   xmlns:cc="http://creativecommons.org/ns#"
   xmlns:rdf="http://www.w3.org/1999/02/22-rdf-syntax-ns#"
   xmlns:svg="http://www.w3.org/2000/svg"
   xmlns="http://www.w3.org/2000/svg"
   xmlns:sodipodi="http://sodipodi.sourceforge.net/DTD/sodipodi-0.dtd"
   xmlns:inkscape="http://www.inkscape.org/namespaces/inkscape"
   width="1024"
   height="1024"
   id="svg3058"
   version="1.1"
   inkscape:version="0.48.4 r9939"
   sodipodi:docname="poly.svg">
  <defs
     id="defs3060" />
  <sodipodi:namedview
     id="base"
     pagecolor="#ffffff"
     bordercolor="#666666"
     borderopacity="1.0"
     inkscape:pageopacity="0.0"
     inkscape:pageshadow="2"
     inkscape:zoom="0.49497475"
     inkscape:cx="745.52094"
     inkscape:cy="657.11717"
     inkscape:document-units="px"
     inkscape:current-layer="layer1"
     showgrid="false"
     fit-margin-top="0"
     fit-margin-left="0"
     fit-margin-right="0"
     fit-margin-bottom="0"
     inkscape:window-width="1858"
     inkscape:window-height="1057"
     inkscape:window-x="54"
     inkscape:window-y="-8"
     inkscape:window-maximized="1" />
  <metadata
     id="metadata3063">
    <rdf:RDF>
      <cc:Work
         rdf:about="">
        <dc:format>image/svg+xml</dc:format>
        <dc:type
           rdf:resource="http://purl.org/dc/dcmitype/StillImage" />
        <dc:title />
      </cc:Work>
    </rdf:RDF>
  </metadata>
  <g
     inkscape:label="Layer 1"
     inkscape:groupmode="layer"
     id="layer1"
     transform="translate(-273.31311,616.787)">
    <g
       id="g5959"
       transform="matrix(4.9267224,0,0,4.9267224,-7029.085,6040.6649)">
      <g
         transform="translate(1088.9754,-752.2103)"
         id="g5878">
        <path
           transform="matrix(2.2343877,0,0,2.2343877,-6.70468,258.13557)"
           d="m 265.77948,-313.88241 -40.2795,23.25537 -40.27949,-23.25537 0,-46.51075 40.27949,-23.25538 40.2795,23.25538 z"
           inkscape:randomized="0"
           inkscape:rounded="0"
           inkscape:flatsided="true"
           sodipodi:arg2="1.0471976"
           sodipodi:arg1="0.52359878"
           sodipodi:r2="40.279491"
           sodipodi:r1="46.51075"
           sodipodi:cy="-337.13779"
           sodipodi:cx="225.49998"
           sodipodi:sides="6"
           id="path5880"
           style="fill:#4c3639;fill-opacity:1;fill-rule:nonzero;stroke:none"
           sodipodi:type="star" />
        <g
           style="fill:#ffffff;fill-opacity:1;stroke:#000000;stroke-opacity:1"
           transform="translate(179.96409,13.44038)"
           id="g5882">
          <g
             style="fill:#ffffff;fill-opacity:1;stroke:#000000;stroke-opacity:1"
             transform="translate(204.53912,-1055.2786)"
             id="g5884">
            <text
               xml:space="preserve"
               style="font-size:144px;font-style:normal;font-variant:normal;font-weight:900;font-stretch:normal;line-height:125%;letter-spacing:0px;word-spacing:0px;fill:#ffffff;fill-opacity:1;stroke:#000000;stroke-opacity:1;font-family:Raleway;-inkscape-font-specification:Raleway Heavy"
               x="179.20355"
               y="600.12964"
               id="text5886"
               sodipodi:linespacing="125%"><tspan
                 sodipodi:role="line"
                 id="tspan5888"
                 x="179.20355"
                 y="600.12964" /></text>
          </g>
        </g>
      </g>
      <path
         id="path5892"
         d="m 1592.3247,-1306.1643 c -3.6723,-0.1986 -7.2977,2.244 -10.1562,7.6875 -3.3226,0.2416 -6.5879,0.6722 -9.7813,1.3125 -0.1008,0.02 -0.2119,0.042 -0.3125,0.062 -9.9948,2.4328 -20.2425,6.9044 -29.5625,12.875 -0.029,0.018 -0.034,0.044 -0.062,0.062 -0.01,0.01 -0.023,-0.01 -0.031,0 -18.992,13.553 -31.6938,35.3846 -32.8126,60.2188 9.4377,1.5918 18.175,5.1475 26,10 6.9847,4.3314 11.4187,8.0626 16.3438,12.9687 3.2791,3.2664 6.335,6.9621 8.6875,10.8437 2.3525,3.8816 2.5951,-0.1213 3.5625,-4.6874 0.9674,-4.5662 1.4086,-8.0215 2.9375,-13.1563 1.6405,-5.5094 3.636,-9.9524 5.2187,-11.0937 3.058,-2.205 12.6948,-4.1781 19.8126,-3.7188 6.4248,0.4146 13.0624,2.188 19.5937,3.9375 4.7209,-3.3174 10.3263,-5.537 16.375,-6.2813 -4.7811,1.4555 -9.6984,3.8162 -14.1875,6.875 3.5073,0.9327 6.9895,1.8306 10.3125,2.4376 9.9696,1.821 18.82,1.1331 24.75,-4.3126 3.1427,0.4249 7.9563,-1.6013 10.125,-3.375 -3.469,1.0627 -10.4033,-2.2124 -9.5625,-8.8124 1.99,3.8269 9.1924,6.5404 12.1562,5.625 1.2652,-2.7962 1.281,-6.4212 -0.375,-9.25 -2.2184,-3.79 -14.9896,-8.2745 -20.8437,-18.0313 -6.4426,-10.7377 -6.3293,-12.566 -14.5625,-19.75 -3.851,-3.3601 -7.0568,-7.6817 -9.1875,-9.8125 -3.7627,-3.7627 -7.3061,-6.8053 -11.3437,-9.2188 -3.3791,-8.3763 -8.282,-13.146 -13.0938,-13.4062 z m -27.6562,18.9375 c 5.7971,-0.1639 12.0597,3.0676 15.9374,13.875 -7.3279,-7.0412 -15.7752,-6.6379 -21.4374,-3.4063 -8.0699,4.6061 -11.6697,20.3359 1.1562,30.5626 -20.5174,-11.1522 -13.7708,-33.0027 -3.9688,-38.5938 2.3642,-1.3485 5.2758,-2.3516 8.3126,-2.4375 z m 49,31.5313 c 3.2889,-0.1407 7.2461,2.2846 8.4687,7.5312 -5.196,0.8491 -12.5394,1.3042 -12.5937,-5.25 0.8684,-1.4395 2.4023,-2.2075 4.125,-2.2812 z m -1.5,17.9687 c 7.4828,-0.061 14.8071,2.3337 22.8124,6.5313 -13.8028,-5.2145 -25.8563,-6.9621 -40.9374,-1.625 6.4038,-3.3317 12.305,-4.8588 18.125,-4.9063 z"
         style="color:#000000;fill:#ebebe0;fill-opacity:1;stroke:none;stroke-width:0.99999994px;marker:none;visibility:visible;display:inline;overflow:visible;enable-background:accumulate"
         inkscape:connector-curvature="0" />
    </g>
  </g>
</svg>
